<?xml version="1.0" encoding="UTF-8"?>
<svg width="26px" height="32px" viewBox="0 0 26 32" version="1.1" xmlns="http://www.w3.org/2000/svg" xmlns:xlink="http://www.w3.org/1999/xlink">
    <!-- Generator: Sketch 52.1 (67048) - http://www.bohemiancoding.com/sketch -->
    <title>Places</title>
    <desc>Created with Sketch.</desc>
    <g id="Page-1" stroke="none" stroke-width="1" fill="none" fill-rule="evenodd">
        <g id="Old-User" transform="translate(-826.000000, -490.000000)" fill="#555" fill-rule="nonzero">
            <g id="Places" transform="translate(826.000000, 490.000000)">
                <path d="M23.6219375,5.5638125 C21.179,2.0281875 17.3073125,0 13.000375,0 C8.6934375,0 4.82175,2.0281875 2.3788125,5.5638125 C-0.052125,9.0815625 -0.6134375,13.535125 0.8743125,17.4698125 C1.27225,18.5443125 1.9048125,19.58825 2.7499375,20.5665 L12.1485625,31.606125 C12.361125,31.856 12.6725625,32 13.000375,32 C13.3281875,32 13.639625,31.8560625 13.8521875,31.606125 L23.2481875,20.5695 C24.0970625,19.585625 24.7288125,18.5428125 25.1234375,17.4769375 C26.6141875,13.535125 26.052875,9.0815625 23.6219375,5.5638125 Z M23.0281875,16.6933125 C22.723875,17.5156875 22.2270625,18.32875 21.552375,19.1108125 C21.5505,19.1126875 21.548625,19.1145625 21.547125,19.1168125 L13.000375,29.1554375 L4.448375,19.1105 C3.7740625,18.329125 3.27725,17.516125 2.9699375,16.685875 C1.7395625,13.4318125 2.2065,9.7495625 4.219375,6.836375 C6.2385625,3.913875 9.4393125,2.23775 13.000375,2.23775 C16.561375,2.23775 19.76175,3.9138125 21.781,6.836375 C23.79425,9.7495625 24.2615625,13.4318125 23.0281875,16.6933125 Z" id="Shape"></path>
                <path d="M13.000375,6.6386875 C9.545625,6.6386875 6.734625,9.4493125 6.734625,12.9044375 C6.734625,16.3595625 9.54525,19.1701875 13.000375,19.1701875 C16.4555,19.1701875 19.266125,16.3595625 19.266125,12.9044375 C19.266125,9.4496875 16.455125,6.6386875 13.000375,6.6386875 Z M13.000375,16.932375 C10.779375,16.932375 8.972375,15.125375 8.972375,12.904375 C8.972375,10.683375 10.779375,8.876375 13.000375,8.876375 C15.221375,8.876375 17.028375,10.683375 17.028375,12.904375 C17.028375,15.125375 15.221375,16.932375 13.000375,16.932375 Z" id="Shape"></path>
            </g>
        </g>
    </g>
</svg>