<svg xmlns="http://www.w3.org/2000/svg" width="102" height="131" viewBox="0 0 102 131">
    <g fill="#F81894" fill-rule="evenodd">
        <path fill-rule="nonzero" d="M100.702 26.524L51.472.289a2.446 2.446 0 0 0-2.331.013L1.272 26.538A2.451 2.451 0 0 0 0 28.688v34.27c.029 28.17 16.718 53.656 42.526 64.942l6.645 2.896c.62.27 1.328.272 1.95.003l7.487-3.234c26.287-11.041 43.39-36.773 43.392-65.287v-33.59c0-.906-.5-1.739-1.298-2.164zm-3.604 35.754c-.005 26.548-15.932 50.504-40.409 60.777l-.016.009-6.52 2.815-5.665-2.472C20.464 112.902 4.928 89.18 4.9 62.957V30.14L50.335 5.236l46.763 24.92v32.122z"/>
        <path d="M32.316 61.079a2.476 2.476 0 0 0-3.456-.268 2.389 2.389 0 0 0-.272 3.404l12.946 14.938a2.476 2.476 0 0 0 3.41.306l30.152-24.17a2.39 2.39 0 0 0 .354-3.398 2.476 2.476 0 0 0-3.448-.35l-28.295 22.68L32.316 61.08z"/>
    </g>
</svg>
