<?xml version="1.0" encoding="UTF-8"?>
<svg width="14px" height="12px" viewBox="0 0 14 12" version="1.1" xmlns="http://www.w3.org/2000/svg" xmlns:xlink="http://www.w3.org/1999/xlink">
    <!-- Generator: Sketch 52.1 (67048) - http://www.bohemiancoding.com/sketch -->
    <title>Shape</title>
    <desc>Created with Sketch.</desc>
    <g id="Page-1" stroke="none" stroke-width="1" fill="none" fill-rule="evenodd">
        <g id="Old-User" transform="translate(-1190.000000, -5722.000000)" fill="#767676">
            <path d="M1204,5723.42268 C1203.475,5723.6701 1202.95,5723.85567 1202.36667,5723.91753 C1202.95,5723.54639 1203.41667,5722.92784 1203.65,5722.24742 C1203.06667,5722.61856 1202.48333,5722.86598 1201.84167,5722.98969 C1201.31667,5722.37113 1200.55833,5722 1199.74167,5722 C1198.16667,5722 1196.88333,5723.36082 1196.88333,5725.03093 C1196.88333,5725.27835 1196.88333,5725.52577 1196.94167,5725.71134 C1194.49167,5725.58763 1192.39167,5724.35052 1190.99167,5722.49485 C1190.7,5722.98969 1190.58333,5723.48454 1190.58333,5724.04124 C1190.58333,5725.09278 1191.10833,5726.02062 1191.86667,5726.57732 C1191.4,5726.57732 1190.93333,5726.45361 1190.58333,5726.20619 C1190.58333,5726.20619 1190.58333,5726.20619 1190.58333,5726.26804 C1190.58333,5727.75258 1191.575,5728.98969 1192.85833,5729.23711 C1192.625,5729.29897 1192.39167,5729.36082 1192.1,5729.36082 C1191.925,5729.36082 1191.75,5729.36082 1191.575,5729.29897 C1191.925,5730.53608 1192.975,5731.40206 1194.25833,5731.40206 C1193.26667,5732.20619 1192.04167,5732.70103 1190.7,5732.70103 C1190.46667,5732.70103 1190.23333,5732.70103 1190,5732.63918 C1191.28333,5733.50515 1192.8,5734 1194.375,5734 C1199.68333,5734 1202.54167,5729.36082 1202.54167,5725.34021 L1202.54167,5724.96907 C1203.125,5724.53608 1203.59167,5723.97938 1204,5723.42268 L1204,5723.42268 Z" id="Shape"></path>
        </g>
    </g>
</svg>