<svg xmlns="http://www.w3.org/2000/svg" width="43" height="35" viewBox="0 0 43 35">
    <g fill="#555" fill-rule="nonzero">
        <path d="M36.013 0H0v35h43V0h-6.987zM7.167 1.429h34.4V5H1.433V1.429h5.734zM1.433 33.57V6.43h40.134V33.57H1.433z"/>
        <ellipse cx="16.235" cy="10.938" rx="1" ry="1"/>
        <ellipse cx="21.5" cy="10.938" rx="1" ry="1"/>
        <ellipse cx="26.765" cy="10.938" rx="1" ry="1"/>
        <ellipse cx="31.153" cy="10.938" rx="1" ry="1"/>
        <ellipse cx="36.418" cy="10.938" rx="1" ry="1"/>
        <ellipse cx="5.704" cy="17.063" rx="1" ry="1"/>
        <ellipse cx="10.969" cy="17.063" rx="1" ry="1"/>
        <ellipse cx="16.235" cy="17.063" rx="1" ry="1"/>
        <ellipse cx="21.5" cy="17.063" rx="1" ry="1"/>
        <ellipse cx="26.765" cy="17.063" rx="1" ry="1"/>
        <ellipse cx="31.153" cy="17.063" rx="1" ry="1"/>
        <ellipse cx="36.418" cy="17.063" rx="1" ry="1"/>
        <ellipse cx="5.704" cy="22.313" rx="1" ry="1"/>
        <ellipse cx="10.969" cy="22.313" rx="1" ry="1"/>
        <ellipse cx="16.235" cy="22.313" rx="1" ry="1"/>
        <ellipse cx="21.5" cy="22.313" rx="1" ry="1"/>
        <ellipse cx="26.765" cy="22.313" rx="1" ry="1"/>
        <ellipse cx="31.153" cy="22.313" rx="1" ry="1"/>
        <ellipse cx="36.418" cy="22.313" rx="1" ry="1"/>
        <ellipse cx="5.704" cy="27.563" rx="1" ry="1"/>
        <ellipse cx="10.969" cy="27.563" rx="1" ry="1"/>
        <ellipse cx="16.235" cy="27.563" rx="1" ry="1"/>
        <ellipse cx="21.5" cy="27.563" rx="1" ry="1"/>
        <ellipse cx="26.765" cy="27.563" rx="1" ry="1"/>
    </g>
</svg>
