<?xml version="1.0" encoding="UTF-8"?>
<svg width="123px" height="147px" viewBox="0 0 123 147" version="1.1" xmlns="http://www.w3.org/2000/svg" xmlns:xlink="http://www.w3.org/1999/xlink">
    <!-- Generator: Sketch 52.1 (67048) - http://www.bohemiancoding.com/sketch -->
    <title>compass</title>
    <desc>Created with Sketch.</desc>
    <g id="Page-1" stroke="none" stroke-width="1" fill="none" fill-rule="evenodd">
        <g id="Old-User" transform="translate(-659.000000, -966.000000)" fill="#F81894" fill-rule="nonzero">
            <g id="compass" transform="translate(659.000000, 966.000000)">
                <path d="M61.5,39 C36.4112574,39 16,59.6355569 16,85 C16,110.364443 36.4112574,131 61.5,131 C86.5887426,131 107,110.364443 107,85 C107,59.6355569 86.5887426,39 61.5,39 Z M64.4472075,124.930583 L64.4472075,121.09127 C64.4472075,119.445604 63.1277785,118.111676 61.5,118.111676 C59.8722215,118.111676 58.5527925,119.445604 58.5527925,121.09127 L58.5527925,124.930583 C39.0583495,123.473797 23.4443963,107.688549 22.0034446,87.9798814 L25.8010265,87.9798814 C27.428805,87.9798814 28.748234,86.6456661 28.748234,85.0002871 C28.748234,83.3546209 27.428805,82.0206927 25.8010265,82.0206927 L22.0034446,82.0206927 C23.4443963,62.3117379 39.0580655,46.5264899 58.5527925,45.0697036 L58.5527925,48.9090172 C58.5527925,50.5543963 59.8722215,51.8886115 61.5,51.8886115 C63.1277785,51.8886115 64.4472075,50.5543963 64.4472075,48.9090172 L64.4472075,45.0697036 C83.9416505,46.5264899 99.5556037,62.3117379 100.996271,82.0206927 L97.1989735,82.0206927 C95.571195,82.0206927 94.251766,83.3546209 94.251766,85.0002871 C94.251766,86.6456661 95.571195,87.9798814 97.1989735,87.9798814 L100.996555,87.9798814 C99.5553198,107.688262 83.9416505,123.473797 64.4472075,124.930583 Z" id="Shape"></path>
                <path d="M64.4165818,21.4025266 L64.4165818,17.5308642 L69.1023897,17.5308642 C70.7134084,17.5308642 72.0192525,16.1966695 72.0192525,14.5506747 L72.0192525,2.98018949 C72.0192525,1.33419466 70.7134084,0 69.1023897,0 L53.8956432,0 C52.2846245,0 50.9787805,1.33419466 50.9787805,2.98018949 L50.9787805,14.5506747 C50.9787805,16.1966695 52.2846245,17.5308642 53.8956432,17.5308642 L58.5834182,17.5308642 L58.5834182,21.4025266 C26.0213383,22.9638243 0,50.5167959 0,84.1648005 C0,118.812231 27.5885198,147 61.5,147 C95.4114802,147 123,118.812231 123,84.1648005 C123,50.5167959 96.9783807,22.9638243 64.4165818,21.4025266 Z M56.812225,11.5707723 L56.812225,5.96037898 L66.1855269,5.96037898 L66.1855269,11.5707723 L56.812225,11.5707723 Z M61.499719,140.726098 C30.9743849,140.726098 6.14030522,115.352857 6.14030522,84.1648005 C6.14030522,52.9767442 30.9743849,27.6037898 61.499719,27.6037898 C92.0250531,27.6037898 116.859133,52.9770313 116.859133,84.1650876 C116.859414,115.353144 92.0253341,140.726098 61.499719,140.726098 Z" id="Shape"></path>
                <path d="M83.1580897,59.8804283 C82.3107655,58.9945785 81.0270415,58.7511146 79.9360423,59.2693077 L53.6385309,71.7661585 C53.6166556,71.7765803 53.5961647,71.789318 53.5742894,71.8003187 C53.5305386,71.8223202 53.4867879,71.8451902 53.4438679,71.8697971 C53.4051014,71.8917986 53.3679964,71.9158266 53.3303375,71.940144 C53.291848,71.964751 53.2530815,71.9887789 53.2154226,72.0157018 C53.1708412,72.0472566 53.1281981,72.0814168 53.0852781,72.115577 C53.056757,72.138447 53.0274053,72.1598695 52.9997149,72.1838975 C52.8579404,72.3063532 52.7277958,72.4424151 52.6106657,72.5906357 C52.5874058,72.6204535 52.5666381,72.6514293 52.5444858,72.6815366 C52.5120881,72.7258291 52.4796904,72.7698321 52.4500618,72.8158616 C52.4240328,72.8558116 52.4004961,72.8969197 52.3764055,72.9380278 C52.3539763,72.9762409 52.3315471,73.014454 52.3107794,73.0541146 C52.2866888,73.0998546 52.2648134,73.1461735 52.2429381,73.1930714 C52.2326926,73.2150729 52.2207858,73.236206 52.2110942,73.2584969 L40.2577303,100.751684 C39.7617964,101.891999 39.994949,103.23438 40.8419963,104.119651 C41.3927571,104.695742 42.1282124,105 42.8750207,105 C43.2768075,105 43.6819171,104.911705 44.0637668,104.730482 L70.3612782,92.2336309 C70.3831536,92.2232091 70.4033675,92.2104714 70.4246891,92.1997601 C70.4687167,92.1771797 70.5127443,92.1545992 70.5559413,92.1299922 C70.5944308,92.1079907 70.631259,92.0842523 70.668364,92.0605138 C70.7071305,92.0359069 70.7461739,92.0115894 70.7838327,91.9843771 C70.8278603,91.9531118 70.8705035,91.919241 70.9125928,91.8853703 C70.9416676,91.8622108 70.9712963,91.8404988 70.9995404,91.8161814 C71.141038,91.6940152 71.2711826,91.5579533 71.3880358,91.4100222 C71.4121264,91.3796254 71.4337249,91.3474916 71.456431,91.3165158 C71.4879979,91.2730918 71.5195649,91.2302468 71.5489167,91.1850858 C71.5752225,91.1445567 71.5990362,91.1031592 71.6234037,91.0617616 C71.6455559,91.023838 71.6679851,90.9862038 71.688476,90.9468327 C71.7125666,90.9010928 71.7347188,90.8541949 71.7565942,90.8072969 C71.7668396,90.7855849 71.7787465,90.7644519 71.7884381,90.7421609 L83.741802,63.2489734 C84.2382897,62.1080799 84.005414,60.7659886 83.1580897,59.8804283 Z M48.6620239,95.9437782 L55.7277667,79.6924876 L64.2065474,88.5567753 L48.6620239,95.9437782 Z M68.2714886,84.3075913 L59.792708,75.4433036 L75.3372314,68.0563007 L68.2714886,84.3075913 Z" id="Shape"></path>
            </g>
        </g>
    </g>
</svg>