<?xml version="1.0" encoding="UTF-8"?>
<svg width="102px" height="131px" viewBox="0 0 102 131" version="1.1" xmlns="http://www.w3.org/2000/svg" xmlns:xlink="http://www.w3.org/1999/xlink">
    <!-- Generator: Sketch 52.1 (67048) - http://www.bohemiancoding.com/sketch -->
    <title>security</title>
    <desc>Created with Sketch.</desc>
    <g id="Page-1" stroke="none" stroke-width="1" fill="none" fill-rule="evenodd">
        <g id="Old-User" transform="translate(-1003.000000, -974.000000)" fill="#F81894">
            <g id="security" transform="translate(1003.000000, 974.000000)">
                <path d="M100.702039,26.5239057 L51.4711775,0.288658793 C50.7408181,-0.101176644 49.8654812,-0.0957056186 49.140593,0.302337057 L1.27197393,26.5375839 C0.486905975,26.9684549 0,27.7918971 0,28.6878346 L0,62.957797 C0.0287220795,91.1285431 16.717567,116.614212 42.5263285,127.900292 L49.1706825,130.796018 C49.7916248,131.06685 50.4987328,131.068218 51.1210427,130.798753 L58.6079085,127.56517 C84.8953697,116.523934 101.997264,90.7920533 102,62.2779783 L102,28.6878346 C102,27.7823221 101.500784,26.9493052 100.702039,26.5239057 Z M97.0981134,62.2779783 C97.0926425,88.8264617 81.1656142,112.781513 56.6890061,123.055389 L56.6725932,123.063595 L50.1527013,125.878618 L44.4876301,123.406924 C20.4637355,112.901883 4.92787311,89.1807333 4.90051884,62.957797 L4.90051884,30.1391169 L50.3346071,5.23615025 L97.0981134,30.1568992 L97.0981134,62.2779783 Z" id="Shape" fill-rule="nonzero"></path>
                <path d="M32.3158045,61.078721 C31.4363848,60.0639753 29.8895362,59.9440386 28.8596716,60.8105477 C27.829807,61.6757096 27.708083,63.2011973 28.5875028,64.2145955 L41.5339824,79.1527852 C42.3983575,80.1500121 43.9123814,80.2861204 44.9436139,79.4586914 L75.0955349,55.2880669 C76.1459148,54.447162 76.3045663,52.9257172 75.4497647,51.8907574 C74.596331,50.8571451 73.0522179,50.6994755 72.001838,51.5417279 L43.7072293,74.2219022 L32.3158045,61.078721 Z" id="Path"></path>
            </g>
        </g>
    </g>
</svg>