<svg xmlns="http://www.w3.org/2000/svg" width="123" height="147" viewBox="0 0 123 147">
    <g fill="#F81894" fill-rule="nonzero">
        <path d="M61.5 39C36.411 39 16 59.636 16 85s20.411 46 45.5 46S107 110.364 107 85 86.589 39 61.5 39zm2.947 85.93v-3.839c0-1.645-1.32-2.98-2.947-2.98-1.628 0-2.947 1.335-2.947 2.98v3.84c-19.495-1.457-35.109-17.242-36.55-36.951h3.798c1.628 0 2.947-1.334 2.947-2.98 0-1.645-1.32-2.98-2.947-2.98h-3.798c1.441-19.708 17.055-35.494 36.55-36.95v3.839c0 1.645 1.32 2.98 2.947 2.98 1.628 0 2.947-1.335 2.947-2.98v-3.84c19.495 1.457 35.109 17.243 36.55 36.952h-3.798c-1.628 0-2.947 1.334-2.947 2.98 0 1.645 1.32 2.979 2.947 2.979h3.798c-1.442 19.708-17.055 35.494-36.55 36.95z"/>
        <path d="M64.417 21.403V17.53h4.685c1.611 0 2.917-1.334 2.917-2.98V2.98C72.02 1.333 70.713 0 69.102 0H53.896c-1.611 0-2.917 1.334-2.917 2.98v11.57c0 1.647 1.306 2.98 2.917 2.98h4.687v3.873C26.021 22.963 0 50.517 0 84.165 0 118.812 27.589 147 61.5 147S123 118.812 123 84.165c0-33.648-26.022-61.201-58.583-62.762zm-7.605-9.832V5.96h9.374v5.61h-9.374zM61.5 140.726c-30.526 0-55.36-25.373-55.36-56.561S30.974 27.604 61.5 27.604c30.525 0 55.36 25.373 55.36 56.561s-24.835 56.561-55.36 56.561z"/>
        <path d="M83.158 59.88c-.847-.885-2.131-1.129-3.222-.61L53.639 71.765c-.022.01-.043.023-.065.034a2.706 2.706 0 0 0-.13.07c-.039.022-.076.046-.114.07-.038.025-.077.049-.115.076-.044.031-.087.065-.13.1-.028.022-.058.044-.085.068a2.971 2.971 0 0 0-.39.407l-.066.09c-.032.045-.064.089-.094.135-.026.04-.05.08-.074.122a2.746 2.746 0 0 0-.133.255l-.032.065-11.953 27.494c-.496 1.14-.263 2.482.584 3.368a2.81 2.81 0 0 0 2.033.88c.402 0 .807-.088 1.189-.27L70.36 92.234c.022-.01.042-.024.064-.034a3.38 3.38 0 0 0 .13-.07c.04-.022.076-.046.113-.07.04-.024.078-.048.116-.076.044-.03.087-.065.129-.099l.087-.069c.141-.122.271-.258.388-.406.024-.03.046-.063.068-.093.032-.044.064-.087.093-.132.026-.04.05-.082.074-.123a3.217 3.217 0 0 0 .133-.254c.01-.022.023-.044.032-.066L83.742 63.25c.496-1.14.263-2.483-.584-3.369zM48.662 95.944l7.066-16.252 8.479 8.865-15.545 7.387zm19.61-11.636l-8.48-8.865 15.545-7.387-7.066 16.252z"/>
    </g>
</svg>
