<?xml version="1.0" encoding="UTF-8"?>
<svg width="36px" height="36px" viewBox="0 0 36 36" version="1.1" xmlns="http://www.w3.org/2000/svg" xmlns:xlink="http://www.w3.org/1999/xlink">
    <!-- Generator: Sketch 52.1 (67048) - http://www.bohemiancoding.com/sketch -->
    <title>filter (1)</title>
    <desc>Created with Sketch.</desc>
    <g id="Page-1" stroke="none" stroke-width="1" fill="none" fill-rule="evenodd">
        <g id="Desktop-HD-Copy" transform="translate(-134.000000, -173.000000)" fill="#F81894">
            <g id="filter-(1)" transform="translate(134.000000, 173.000000)">
                <g id="Group" transform="translate(19.384615, 18.461538)">
                    <path d="M5.50412308,1.80194533 L0.216692308,7.04567832 C-0.0657692308,7.32587413 -0.0657692308,7.78011952 0.216692308,8.06031532 C0.357992308,8.20044755 0.542976923,8.27041068 0.728169231,8.27041068 C0.913292308,8.27041068 1.09841538,8.20037889 1.23971538,8.06031532 L6.52714615,2.81658233 C6.80960769,2.53638652 6.80960769,2.08214113 6.52714615,1.80194533 C6.24461538,1.52174952 5.78665385,1.52174952 5.50412308,1.80194533 Z" id="Path"></path>
                    <path d="M8.082,0.259872854 C7.79953846,-0.0201856325 7.33901538,-0.0179198983 7.05655385,0.262344565 C6.77409231,0.542540369 6.77409231,0.99678576 7.05655385,1.27698156 C7.19785385,1.4171138 7.38283846,1.48707692 7.56803077,1.48707692 C7.75322308,1.48707692 7.93834615,1.41704514 8.07957692,1.27684425 L8.08442308,1.27203814 C8.36695385,0.991910998 8.36453077,0.54 8.082,0.259872854 Z" id="Path"></path>
                </g>
                <path d="M32.0458976,5.82609571 L32.0307132,5.81056404 C31.6744502,5.45043991 31.0937563,5.44745642 30.7336314,5.80354408 C30.3735941,6.15963173 30.3704344,6.74018272 30.7266974,7.10021911 L30.7350357,7.10873081 L30.7355623,7.10916956 C30.9151421,7.29265386 31.1527385,7.38461538 31.3907739,7.38461538 C31.6221386,7.38461538 31.8538544,7.29748009 32.0322931,7.12294624 C32.3941735,6.76870133 32.400142,6.18797483 32.0458976,5.82609571 Z" id="Path"></path>
                <path d="M32.5707417,7.02567116 C32.148819,6.97212868 31.7562417,7.22264912 31.6940769,7.58488557 C31.5724082,8.2936256 30.849788,8.82803538 30.0131126,8.82803538 C29.0762786,8.82809882 28.3140385,8.17391629 28.3139646,7.36989094 C28.3139646,6.65499733 28.9088549,6.05029718 29.7284552,5.93204697 C30.1490474,5.87133588 30.4327438,5.5293999 30.3620045,5.16843223 C30.2912652,4.80746456 29.893218,4.56404928 29.4722562,4.62463349 C27.9060123,4.85066649 26.7692308,6.00519208 26.7692308,7.36995438 C26.7693047,8.90505027 28.224598,10.1538462 30.0131865,10.1538462 C31.6101063,10.1538462 32.9897816,9.13254238 33.2224748,7.77818407 C33.2844179,7.41582074 32.9927383,7.07902332 32.5707417,7.02567116 Z" id="Path"></path>
                <path d="M25.417267,1.35249933 C24.3964091,0.331881117 22.9890885,-0.146785994 21.555677,0.0394773466 C21.1606554,0.0907532496 20.8821455,0.452514062 20.9334299,0.847469638 C20.9847834,1.24242521 21.3465357,1.5210956 21.7416264,1.46961266 C22.7272133,1.34173346 23.6954062,1.67057555 24.3972374,2.3723584 C24.9967067,2.97158945 25.3267082,3.76833279 25.3267082,4.61579993 C25.3267082,5.46326708 24.9967067,6.26001042 24.3972374,6.85931047 C23.7979061,7.45854152 23.0010296,7.78855682 22.1534207,7.78855682 C21.3058118,7.78855682 20.5090043,7.45854152 19.909604,6.85924146 C19.1902409,6.14006759 18.8643808,5.14974564 19.0154733,4.14223971 C19.0745574,3.74845734 18.8030879,3.38124458 18.4091707,3.32223933 C18.0153224,3.26323409 17.6480483,3.5345892 17.5890332,3.92844059 C17.3726444,5.37155015 17.8589151,6.84840658 18.8897124,7.87903153 C19.7614795,8.75072188 20.9206606,9.23076923 22.1535588,9.23076923 C23.3863879,9.23076923 24.5455689,8.75072188 25.417336,7.87910054 C26.2891031,7.0074792 26.7692308,5.84849197 26.7692308,4.61579993 C26.7692308,3.3831079 26.2890341,2.22418968 25.417267,1.35249933 Z" id="Path"></path>
                <path d="M19.1171623,1.19342046 C18.7594774,0.834063662 18.1781846,0.83283359 17.8187424,1.190521 L17.8087262,1.20053731 C17.4494598,1.55822472 17.4482297,2.13952168 17.8059146,2.49887848 C17.9853282,2.67908405 18.2209732,2.76923077 18.4565303,2.76923077 C18.6908574,2.76923077 18.9251845,2.6801384 19.1043345,2.50177794 L19.1143507,2.49176163 C19.4736171,2.13407422 19.4748472,1.55277726 19.1171623,1.19342046 Z" id="Path"></path>
                <path d="M35.2653578,10.4783667 L18.2157941,10.4783667 C18.0689079,9.65594675 17.6778206,8.89854383 17.0769159,8.295177 C16.2997336,7.51497223 15.2665375,7.08533721 14.1675274,7.08533721 C12.1497926,7.08533721 10.4677375,8.55164497 10.1201747,10.4783667 L8.83644929,10.4783667 C9.45978421,9.73543558 9.80010469,8.80564214 9.80003437,7.8230444 C9.80010469,6.71973094 9.37217278,5.68242285 8.59506082,4.90214749 C7.81794886,4.12187212 6.78468245,3.69230769 5.68574263,3.69230769 C3.41698633,3.69230769 1.57131026,5.54532933 1.57131026,7.82297381 C1.57123995,8.80564214 1.91163074,9.73543558 2.53503598,10.4783667 L0.734712532,10.4783667 C0.328999898,10.4783667 0,10.8086054 0,11.2160033 L0,15.199128 C0.000562513184,15.199128 0.00119534052,15.1990574 0.0017578537,15.1990574 C0.0017578537,15.3910025 0.074603311,15.5797002 0.215161293,15.720747 L13.7387517,29.2981596 L13.7387517,35.2623634 C13.7387517,35.5019594 13.8546294,35.7264483 14.0494699,35.8648125 C14.1751916,35.9539727 14.3235545,36 14.4735345,36 C14.5559427,36 14.6389134,35.986093 14.7187903,35.9576436 L21.7718618,33.4497215 C22.0651421,33.3454542 22.2612483,33.0668903 22.2612483,32.7544413 L22.2612483,29.298089 L35.7848387,15.7206764 C35.9253264,15.579559 35.9981718,15.3908613 35.9982421,15.1989868 C35.998875,15.1990574 35.9994375,15.1990574 36,15.1990574 L36,11.2159327 C36.0000703,10.808676 35.6710704,10.4783667 35.2653578,10.4783667 Z M14.1675977,8.56053981 C14.8741142,8.56053981 15.5383017,8.83677409 16.0378837,9.33827379 C16.3590787,9.66074714 16.5868966,10.0517672 16.7090322,10.4783667 L11.6272178,10.4783667 C11.9464441,9.37208831 12.9641007,8.56053981 14.1675977,8.56053981 Z M5.68567232,5.16765148 C6.39218888,5.16765148 7.056306,5.44388576 7.55588803,5.94538546 C8.05547005,6.44688517 8.33053899,7.11378659 8.33053899,7.82311499 C8.33053899,8.53230221 8.05547005,9.19913304 7.55588803,9.70063274 C7.056306,10.202203 6.39204825,10.4784373 5.685602,10.4784373 C4.97922607,10.4782961 4.31503863,10.2020618 3.8153863,9.70056215 C3.31573396,9.19899185 3.04066501,8.53216102 3.04066501,7.8230444 C3.04066501,6.35885446 4.22714595,5.16765148 5.68567232,5.16765148 Z M21.0069845,28.4710098 C20.8692391,28.6093034 20.7918232,28.7969423 20.7918232,28.9925582 L20.7918232,32.2331047 L15.2081767,34.2185607 L15.2081767,28.9925582 C15.2081767,28.7969423 15.1307609,28.6093034 14.9930155,28.4710098 L2.50845723,15.9367646 L33.4916131,15.9367646 L21.0069845,28.4710098 Z M34.5307156,14.4614914 L1.46942506,14.4614914 L1.46942506,11.9535693 L34.5307156,11.9535693 L34.5307156,14.4614914 Z" id="Shape" fill-rule="nonzero"></path>
            </g>
        </g>
    </g>
</svg>