<?xml version="1.0" encoding="UTF-8"?>
<svg width="131px" height="131px" viewBox="0 0 131 131" version="1.1" xmlns="http://www.w3.org/2000/svg" xmlns:xlink="http://www.w3.org/1999/xlink">
    <!-- Generator: Sketch 52.1 (67048) - http://www.bohemiancoding.com/sketch -->
    <title>Add Listing</title>
    <desc>Created with Sketch.</desc>
    <g id="Page-1" stroke="none" stroke-width="1" fill="none" fill-rule="evenodd">
        <g id="Old-User" transform="translate(-307.000000, -981.000000)" fill="#F81894">
            <g id="Add-Listing" transform="translate(307.000000, 981.000000)">
                <path d="M65.5,0 C29.3843077,0 0,29.3817885 0,65.5 C0,101.618212 29.3843077,131 65.5,131 C101.615692,131 131,101.618212 131,65.5 C131,29.3817885 101.615692,0 65.5,0 Z M65.5,125.961538 C32.1630192,125.961538 5.03846154,98.8369808 5.03846154,65.5 C5.03846154,32.1630192 32.1630192,5.03846154 65.5,5.03846154 C98.8369808,5.03846154 125.961538,32.1630192 125.961538,65.5 C125.961538,98.8369808 98.8369808,125.961538 65.5,125.961538 Z" id="Shape" fill-rule="nonzero"></path>
                <path d="M97.4814815,63.2222222 L68.5185185,63.2222222 L68.5185185,35.5185185 C68.5185185,34.1257778 67.3902222,33 66,33 C64.6097778,33 63.4814815,34.1257778 63.4814815,35.5185185 L63.4814815,63.2222222 L34.5185185,63.2222222 C33.1282963,63.2222222 32,64.348 32,65.7407407 C32,67.1334815 33.1282963,68.2592593 34.5185185,68.2592593 L63.4814815,68.2592593 L63.4814815,98.4814815 C63.4814815,99.8742222 64.6097778,101 66,101 C67.3902222,101 68.5185185,99.8742222 68.5185185,98.4814815 L68.5185185,68.2592593 L97.4814815,68.2592593 C98.8717037,68.2592593 100,67.1334815 100,65.7407407 C100,64.348 98.8717037,63.2222222 97.4814815,63.2222222 Z" id="Path"></path>
            </g>
        </g>
    </g>
</svg>