<svg xmlns="http://www.w3.org/2000/svg" width="131" height="131" viewBox="0 0 131 131">
    <g fill="#F81894" fill-rule="evenodd">
        <path fill-rule="nonzero" d="M65.5 0C29.384 0 0 29.382 0 65.5 0 101.618 29.384 131 65.5 131S131 101.618 131 65.5C131 29.382 101.616 0 65.5 0zm0 125.962c-33.337 0-60.462-27.125-60.462-60.462S32.163 5.038 65.5 5.038s60.462 27.125 60.462 60.462-27.125 60.462-60.462 60.462z"/>
        <path d="M97.481 63.222H68.52V35.52a2.518 2.518 0 1 0-5.038 0v27.703H34.52a2.518 2.518 0 1 0 0 5.037H63.48v30.222a2.518 2.518 0 1 0 5.038 0V68.26H97.48a2.518 2.518 0 1 0 0-5.037z"/>
    </g>
</svg>
