<?xml version="1.0" encoding="UTF-8"?>
<svg width="15px" height="15px" viewBox="0 0 15 15" version="1.1" xmlns="http://www.w3.org/2000/svg" xmlns:xlink="http://www.w3.org/1999/xlink">
    <!-- Generator: Sketch 52.1 (67048) - http://www.bohemiancoding.com/sketch -->
    <title>instagram (1)</title>
    <desc>Created with Sketch.</desc>
    <g id="Page-1" stroke="none" stroke-width="1" fill="none" fill-rule="evenodd">
        <g id="Old-User" transform="translate(-1221.000000, -5721.000000)" fill="#767676">
            <g id="instagram-(1)" transform="translate(1221.000000, 5721.000000)">
                <path d="M10.3125,0 L4.6875,0 C2.0990625,0 0,2.0990625 0,4.6875 L0,10.3125 C0,12.9009375 2.0990625,15 4.6875,15 L10.3125,15 C12.9009375,15 15,12.9009375 15,10.3125 L15,4.6875 C15,2.0990625 12.9009375,0 10.3125,0 Z M13.59375,10.3125 C13.59375,12.121875 12.121875,13.59375 10.3125,13.59375 L4.6875,13.59375 C2.878125,13.59375 1.40625,12.121875 1.40625,10.3125 L1.40625,4.6875 C1.40625,2.878125 2.878125,1.40625 4.6875,1.40625 L10.3125,1.40625 C12.121875,1.40625 13.59375,2.878125 13.59375,4.6875 L13.59375,10.3125 Z" id="Shape" fill-rule="nonzero"></path>
                <path d="M7.53,3.78 C5.4590625,3.78 3.78,5.4590625 3.78,7.53 C3.78,9.6009375 5.4590625,11.28 7.53,11.28 C9.6009375,11.28 11.28,9.6009375 11.28,7.53 C11.28,5.4590625 9.6009375,3.78 7.53,3.78 Z M7.53,9.87375 C6.238125,9.87375 5.18625,8.821875 5.18625,7.53 C5.18625,6.2371875 6.238125,5.18625 7.53,5.18625 C8.821875,5.18625 9.87375,6.2371875 9.87375,7.53 C9.87375,8.821875 8.821875,9.87375 7.53,9.87375 Z" id="Shape" fill-rule="nonzero"></path>
                <circle id="Oval" cx="11.55" cy="3.45" r="1"></circle>
            </g>
        </g>
    </g>
</svg>