<?xml version="1.0" encoding="UTF-8"?>
<svg width="37px" height="39px" viewBox="0 0 37 39" version="1.1" xmlns="http://www.w3.org/2000/svg" xmlns:xlink="http://www.w3.org/1999/xlink">
    <!-- Generator: Sketch 52.1 (67048) - http://www.bohemiancoding.com/sketch -->
    <title>Restaurants</title>
    <desc>Created with Sketch.</desc>
    <g id="Page-1" stroke="none" stroke-width="1" fill="none" fill-rule="evenodd">
        <g id="Old-User" transform="translate(-560.000000, -482.000000)" fill="#555555" fill-rule="nonzero">
            <g id="Restaurants" transform="translate(560.000000, 482.000000)">
                <path d="M32.7764404,1.6199708 C32.4021269,1.24942336 32.4021269,0.648576642 32.7764404,0.278029197 C33.1508497,-0.0926131387 33.7576114,-0.0926131387 34.1321166,0.278029197 L34.2610415,0.405562044 C34.6353549,0.776109489 34.6353549,1.3769562 34.2610415,1.74750365 C34.0738368,1.93282482 33.828544,2.02543796 33.5832513,2.02543796 C33.3379585,2.02543796 33.0926658,1.93282482 32.9054611,1.74750365 L32.7764404,1.6199708 Z M32.6475155,12.1865036 C34.176114,12.1865036 35.4198316,13.4176131 35.4198316,14.9307372 C35.4198316,16.4438613 34.176114,17.6749708 32.6475155,17.6749708 C31.1189171,17.6749708 29.8752953,16.4438613 29.8752953,14.9307372 C29.8752953,13.4176131 31.1189171,12.1865036 32.6475155,12.1865036 Z M32.6475155,14.0843139 C32.1760052,14.0843139 31.7923938,14.4640657 31.7923938,14.9307372 C31.7923938,15.3975036 32.1760052,15.7771606 32.6475155,15.7771606 C33.1191218,15.7771606 33.5027332,15.3975036 33.5027332,14.9307372 C33.5027332,14.4640657 33.1191218,14.0843139 32.6475155,14.0843139 Z M36.9908938,25.9374672 L36.9908938,27.0752044 C36.9908938,28.5575839 35.7726736,29.7635474 34.2753238,29.7635474 L33.4766606,29.7635474 L33.4766606,34.8795693 C33.4766606,37.1289489 31.6280984,38.9589124 29.3558575,38.9589124 L7.69858808,38.9589124 C5.42644301,38.9589124 3.57788083,37.1289489 3.57788083,34.8795693 L3.57788083,29.7635474 L2.77921762,29.7635474 C1.28177202,29.7635474 0.0635518135,28.5575839 0.0635518135,27.0752044 L0.0635518135,25.9374672 C0.0635518135,24.4550876 1.28177202,23.2491241 2.77921762,23.2491241 L3.57788083,23.2491241 L3.57788083,20.4450146 C3.57788083,19.9209343 4.00711917,19.4961095 4.53643005,19.4961095 L32.5181114,19.4961095 C33.0474223,19.4961095 33.4766606,19.9209343 33.4766606,20.4450146 L33.4766606,23.2491241 L34.2753238,23.2491241 C35.7726736,23.2491241 36.9908938,24.4550876 36.9908938,25.9374672 Z M3.57778497,25.1469343 L2.77912176,25.1469343 C2.33876425,25.1469343 1.9805544,25.5015401 1.9805544,25.9374672 L1.9805544,27.0752044 C1.9805544,27.5111314 2.33876425,27.8657372 2.77912176,27.8657372 L3.57778497,27.8657372 L3.57778497,25.1469343 Z M31.5594663,21.3939197 L5.49488342,21.3939197 L5.49488342,34.8795693 C5.49488342,36.0824964 6.48343523,37.0611022 7.69849223,37.0611022 L29.3557617,37.0611022 C30.5709145,37.0611022 31.5594663,36.0824964 31.5594663,34.8795693 L31.5594663,21.3939197 Z M35.0737953,25.9374672 C35.0737953,25.5015401 34.7155855,25.1469343 34.2753238,25.1469343 L33.4766606,25.1469343 L33.4766606,27.8657372 L34.2753238,27.8657372 C34.7155855,27.8657372 35.0737953,27.5111314 35.0737953,27.0752044 L35.0737953,25.9374672 Z M30.1216425,7.60528467 C30.3668394,7.60528467 30.6120363,7.51267153 30.7991451,7.32763504 L30.9281658,7.2000073 C31.302671,6.82955474 31.3028627,6.22880292 30.9286451,5.85806569 C30.5546192,5.48723358 29.9475699,5.48713869 29.5730648,5.85759124 L29.444044,5.98521898 C29.0695389,6.35567153 29.0693472,6.95642336 29.4435648,7.32716058 C29.6307694,7.51257664 29.8762539,7.60528467 30.1216425,7.60528467 Z M22.1766114,17.6199343 C22.1766114,18.1440146 22.6058497,18.5688394 23.1351606,18.5688394 C23.6644715,18.5688394 24.0937098,18.1440146 24.0937098,17.6199343 C24.0937098,16.8703942 24.7097694,16.2605328 25.4668316,16.2605328 C26.2239896,16.2605328 26.8400492,16.8703942 26.8400492,17.6199343 C26.8400492,18.1440146 27.2692876,18.5688394 27.7985984,18.5688394 C28.3279093,18.5688394 28.7571477,18.1440146 28.7571477,17.6199343 C28.7571477,15.8239416 27.2811736,14.3627226 25.4668316,14.3627226 C23.6525855,14.3627226 22.1766114,15.8238467 22.1766114,17.6199343 Z M4.27321244,16.1996131 C4.15138083,15.6895766 4.47029016,15.1784015 4.98551036,15.0577956 L15.3988057,12.6205328 L15.2151477,11.8510657 C14.8706451,10.4084453 15.7759948,8.95737956 17.2331813,8.61643796 L18.3516166,8.35472993 C19.8083238,8.01369343 21.2746166,8.90974453 21.619215,10.3522701 L21.8030648,11.1217372 L32.2162642,8.68437956 C32.7312927,8.5639635 33.2478549,8.87947445 33.3695907,9.38951095 C33.4914223,9.89954745 33.172513,10.4107226 32.6572927,10.5313285 L5.42663472,16.9047445 C5.35253886,16.9221095 5.2782513,16.9304599 5.20520984,16.9304599 C4.77098705,16.930365 4.37750259,16.6362044 4.27321244,16.1996131 Z M17.080772,11.4144745 L17.2645259,12.1838467 L19.9373446,11.5582336 L19.7535907,10.7888613 C19.666842,10.4256204 19.3381554,10.1801387 18.9764948,10.1801387 C18.9158187,10.1801387 18.8543756,10.1870657 18.7927409,10.2013942 L17.6743057,10.4631971 C17.2456425,10.5635912 16.9794534,10.990219 17.080772,11.4144745 Z" id="Shape"></path>
            </g>
        </g>
    </g>
</svg>