<?xml version="1.0" encoding="UTF-8"?>
<svg width="31px" height="33px" viewBox="0 0 31 33" version="1.1" xmlns="http://www.w3.org/2000/svg" xmlns:xlink="http://www.w3.org/1999/xlink">
    <!-- Generator: Sketch 52.1 (67048) - http://www.bohemiancoding.com/sketch -->
    <title>search (1)</title>
    <desc>Created with Sketch.</desc>
    <g id="Page-1" stroke="none" stroke-width="1" fill="none" fill-rule="evenodd">
        <g id="Desktop-HD" transform="translate(-1296.000000, -178.000000)" fill="#FFFFFF" fill-rule="nonzero">
            <g id="search-(1)" transform="translate(1296.000000, 178.000000)">
                <path d="M30.5286653,30.0577713 L22.886635,21.889162 C24.8515353,19.4885721 25.9281157,16.4681389 25.9281157,13.323737 C25.9281157,5.97714426 20.1123266,0 12.9640579,0 C5.81578909,0 0,5.97714426 0,13.323737 C0,20.6703297 5.81578909,26.6474739 12.9640579,26.6474739 C15.6476178,26.6474739 18.2049192,25.8156093 20.3913357,24.2364568 L28.0914224,32.4670505 C28.4132693,32.8105712 28.8461561,33 29.3100439,33 C29.7491309,33 30.1656717,32.82795 30.481882,32.5151318 C31.1537584,31.8506829 31.1751772,30.7488677 30.5286653,30.0577713 Z M12.9640579,3.47575747 C18.2477569,3.47575747 22.5461876,7.89344521 22.5461876,13.323737 C22.5461876,18.7540287 18.2477569,23.1717165 12.9640579,23.1717165 C7.68035881,23.1717165 3.38192814,18.7540287 3.38192814,13.323737 C3.38192814,7.89344521 7.68035881,3.47575747 12.9640579,3.47575747 Z" id="Shape"></path>
            </g>
        </g>
    </g>
</svg>