<svg xmlns="http://www.w3.org/2000/svg" width="37" height="37" viewBox="0 0 37 37">
    <g fill="#F81894" fill-rule="nonzero">
        <path d="M24.438 15.99c.229.091.49.037.665-.137a9.752 9.752 0 0 1 8.342-2.732l2.845.438a.617.617 0 0 0 .419-1.133L19.117 1.507V0h-1.234v1.507L.291 12.426a.617.617 0 0 0 .42 1.133l2.844-.438a9.753 9.753 0 0 1 8.342 2.732.616.616 0 0 0 .665.136 16.041 16.041 0 0 1 4.088-1.036V33.3H14.8a1.85 1.85 0 1 0 0 3.7h7.4a1.85 1.85 0 0 0 0-3.7h-1.85V14.953c1.402.164 2.777.513 4.088 1.037zm-.925-1.616a16.78 16.78 0 0 0-10.03 0L18.5 3.34l5.013 11.034zm1.362.015L19.903 3.447l13.59 8.435a10.989 10.989 0 0 0-8.616 2.507h-.002zM3.506 11.882l13.591-8.435-4.974 10.942a10.989 10.989 0 0 0-8.617-2.507zm19.31 23.268c0 .34-.275.617-.616.617h-7.4a.617.617 0 1 1 0-1.234h7.4c.34 0 .617.276.617.617zm-3.7-1.85h-1.233V14.855a15.93 15.93 0 0 1 1.234 0V33.3z"/>
        <path d="M11.444 29.624H9.637v-4.917c0-.339-.27-.614-.602-.614H3.012a.608.608 0 0 0-.603.614v4.917H.602A.609.609 0 0 0 0 30.24v3.688c0 .34.27.614.602.614h.603v1.844c0 .34.27.615.602.615h8.433a.609.609 0 0 0 .602-.615v-1.844h.602a.608.608 0 0 0 .603-.614v-3.688c0-.34-.27-.615-.603-.615zm-7.83 3.688v-.614h4.819v.614h-4.82zm0-7.99h4.819v6.147h-4.82v-6.147zm-2.41 5.532H2.41v2.458H1.205v-2.458zm8.433 4.917H2.41v-1.23h7.228v1.23zm1.205-2.459H9.637v-2.458h1.205v2.458zM36.398 29.624H34.59v-4.917c0-.339-.27-.614-.603-.614h-6.023a.609.609 0 0 0-.602.614v4.917h-1.807a.608.608 0 0 0-.603.615v3.688c0 .34.27.614.603.614h.602v1.844c0 .34.27.615.602.615h8.433a.608.608 0 0 0 .602-.615v-1.844h.603a.609.609 0 0 0 .602-.614v-3.688c0-.34-.27-.615-.602-.615zm-7.83 3.688v-.614h4.818v.614h-4.819zm0-7.99h4.818v6.147h-4.819v-6.147zm-2.41 5.532h1.205v2.458h-1.205v-2.458zm8.433 4.917h-7.228v-1.23h7.228v1.23zm1.204-2.459h-1.204v-2.458h1.204v2.458z"/>
    </g>
</svg>
