<?xml version="1.0" encoding="UTF-8"?>
<svg width="37px" height="37px" viewBox="0 0 37 37" version="1.1" xmlns="http://www.w3.org/2000/svg" xmlns:xlink="http://www.w3.org/1999/xlink">
    <!-- Generator: Sketch 52.1 (67048) - http://www.bohemiancoding.com/sketch -->
    <title>Tours &amp; Experiences</title>
    <desc>Created with Sketch.</desc>
    <g id="Page-1" stroke="none" stroke-width="1" fill="none" fill-rule="evenodd">
        <g id="Old-User" transform="translate(-236.000000, -486.000000)" fill="#F81894" fill-rule="nonzero">
            <g id="Tours-&amp;-Experiences" transform="translate(236.000000, 486.000000)">
                <path d="M24.4379915,15.9896442 C24.666977,16.0810922 24.9285367,16.0270438 25.1027491,15.8525929 C27.2934329,13.6715946 30.3882352,12.6581868 33.4446723,13.1214589 L36.2899794,13.5593959 C36.6265808,13.6110314 36.9412247,13.3798779 36.992861,13.0432818 C37.0302612,12.7990987 36.9185433,12.5561222 36.7086199,12.4258269 L19.1167943,1.50708215 L19.1167943,0 L17.8833131,0 L17.8833131,1.50708215 L0.291487504,12.4258269 C0.00217923848,12.6055861 -0.0868572705,12.985614 0.0929047403,13.2751591 C0.22320211,13.484838 0.465941137,13.5967955 0.710127943,13.5591546 L3.55543508,13.1214589 C6.61187212,12.6584281 9.70667444,13.6715946 11.8973583,15.8525929 C12.0715706,16.0270438 12.3331303,16.0808509 12.5621158,15.9894029 C13.8730515,15.4655676 15.2476881,15.1169071 16.6500732,14.9528316 L16.6500732,33.2998552 L14.8000927,33.2998552 C13.778224,33.2998552 12.9501123,34.1281954 12.9501123,35.1500482 C12.9501123,36.1716598 13.778224,37 14.8000927,37 L22.2002559,37 C23.2218833,37 24.0502364,36.1716598 24.0502364,35.1500482 C24.0502364,34.1281954 23.2218833,33.2998552 22.2002559,33.2998552 L20.3500342,33.2998552 L20.3500342,14.9528316 C21.7524193,15.1169071 23.1270559,15.4655676 24.4379915,15.9896442 Z M23.513122,14.3739827 C20.2477267,13.3511647 16.7475549,13.3511647 13.4821596,14.3739827 L18.5000537,3.34038502 L23.513122,14.3739827 Z M24.8747288,14.3887012 L19.9029214,3.44655154 L33.4938957,11.8824473 C30.3959566,11.4536793 27.2618238,12.3650225 24.8771417,14.3887012 L24.8747288,14.3887012 Z M3.50621165,11.8824473 L17.097186,3.44655154 L12.1229657,14.3887012 C9.73828362,12.3650225 6.6041508,11.4536793 3.50621165,11.8824473 Z M22.8167552,35.1500482 C22.8167552,35.490505 22.5407179,35.766538 22.2002559,35.766538 L14.8000927,35.766538 C14.4593894,35.766538 14.1833522,35.490505 14.1833522,35.1500482 C14.1833522,34.8093502 14.4593894,34.5333172 14.8000927,34.5333172 L22.2002559,34.5333172 C22.5407179,34.5333172 22.8167552,34.8093502 22.8167552,35.1500482 Z M19.1167943,33.3000965 L17.8833131,33.3000965 L17.8833131,14.8548688 C18.2944735,14.8389438 18.7056339,14.8389438 19.1167943,14.8548688 L19.1167943,33.3000965 Z" id="Shape"></path>
                <path d="M11.4443509,29.6244817 L9.63739775,29.6244817 L9.63739775,24.7074694 C9.63739775,24.3681412 9.36778063,24.0930233 9.03500147,24.0930233 L3.01174573,24.0930233 C2.67896657,24.0930233 2.40934945,24.3681412 2.40934945,24.7074694 L2.40934945,29.6244817 L0.602396279,29.6244817 C0.269617114,29.6244817 0,29.8995997 0,30.2391683 L0,33.9268072 C0,34.2663759 0.269617114,34.5414939 0.602396279,34.5414939 L1.20455689,34.5414939 L1.20455689,36.3853134 C1.20455689,36.724882 1.47417401,37 1.80695317,37 L10.2395584,37 C10.5723375,37 10.8419546,36.724882 10.8419546,36.3853134 L10.8419546,34.5414939 L11.4443509,34.5414939 C11.7768944,34.5414939 12.0465115,34.2663759 12.0465115,33.9268072 L12.0465115,30.2391683 C12.0467472,29.8998401 11.7771301,29.6244817 11.4443509,29.6244817 Z M3.61390635,33.312361 L3.61390635,32.6976745 L8.43260519,32.6976745 L8.43260519,33.312361 L3.61390635,33.312361 Z M3.61390635,25.3221561 L8.43260519,25.3221561 L8.43260519,31.4685416 L3.61390635,31.4685416 L3.61390635,25.3221561 Z M1.20479256,30.853855 L2.40934945,30.853855 L2.40934945,33.312361 L1.20479256,33.312361 L1.20479256,30.853855 Z M9.63739775,35.7708672 L2.40934945,35.7708672 L2.40934945,34.5414939 L9.63739775,34.5414939 L9.63739775,35.7708672 Z M10.8419546,33.312361 L9.63739775,33.312361 L9.63739775,30.853855 L10.8419546,30.853855 L10.8419546,33.312361 Z" id="Shape"></path>
                <path d="M36.3976037,29.6244817 L34.5906505,29.6244817 L34.5906505,24.7074694 C34.5906505,24.3681412 34.3210334,24.0930233 33.98849,24.0930233 L27.9649984,24.0930233 C27.6324549,24.0930233 27.3626021,24.3681412 27.3626021,24.7074694 L27.3626021,29.6244817 L25.5556489,29.6244817 C25.2231055,29.6244817 24.9534884,29.8995997 24.9534884,30.2391683 L24.9534884,33.9268072 C24.9534884,34.2663759 25.2231055,34.5414939 25.5556489,34.5414939 L26.1580452,34.5414939 L26.1580452,36.3853134 C26.1580452,36.724882 26.4276623,37 26.7604415,37 L35.1930468,37 C35.5255903,37 35.7952074,36.724882 35.7952074,36.3853134 L35.7952074,34.5414939 L36.3976037,34.5414939 C36.7303829,34.5414939 37,34.2663759 37,33.9268072 L37,30.2391683 C37,29.8998401 36.7303829,29.6244817 36.3976037,29.6244817 Z M28.5673947,33.312361 L28.5673947,32.6976745 L33.3860936,32.6976745 L33.3860936,33.312361 L28.5673947,33.312361 Z M28.5673947,25.3221561 L33.3860936,25.3221561 L33.3860936,31.4685416 L28.5673947,31.4685416 L28.5673947,25.3221561 Z M26.1580452,30.853855 L27.3626021,30.853855 L27.3626021,33.312361 L26.1580452,33.312361 L26.1580452,30.853855 Z M34.5906505,35.7708672 L27.3626021,35.7708672 L27.3626021,34.5414939 L34.5906505,34.5414939 L34.5906505,35.7708672 Z M35.7954431,33.312361 L34.5906505,33.312361 L34.5906505,30.853855 L35.7954431,30.853855 L35.7954431,33.312361 Z" id="Shape"></path>
            </g>
        </g>
    </g>
</svg>